<svg width="48" height="42" viewBox="0 0 48 42" fill="none" xmlns="http://www.w3.org/2000/svg">
<path fill-rule="evenodd" clip-rule="evenodd" d="M22.8541 41.9296L0.154297 41.9751V41.2375C2.19349 41.2375 3.76835 40.6536 4.8788 39.4857C5.5047 38.8301 5.92868 38.0004 6.15074 36.9964C6.3931 35.972 6.51423 34.4148 6.51423 32.325V9.67496C6.51423 7.50322 6.38299 5.90508 6.1205 4.88065C5.87822 3.83574 5.41381 2.98543 4.72734 2.32981C4.162 1.79716 3.52608 1.40786 2.81939 1.16202C2.13292 0.916085 1.24453 0.772724 0.154297 0.731765V0.0249023H19.5066V0.731765C18.3962 0.793204 17.4876 0.946848 16.781 1.19269C16.0743 1.43854 15.4484 1.82783 14.9033 2.36057C14.2168 3.03667 13.7524 3.88698 13.5101 4.91142C13.2678 5.93585 13.1467 7.5237 13.1467 9.67496V27.4078C13.1467 30.1328 13.2174 32.1611 13.3587 33.4929C13.5 34.8246 13.7726 35.9105 14.1763 36.7506C14.883 38.2257 15.9329 39.3116 17.3261 40.0082C18.7157 40.6826 20.5575 41.0207 22.8511 41.0223L22.8541 41.9296Z" fill="#3F51F2"/>
<path fill-rule="evenodd" clip-rule="evenodd" d="M16.7092 41.9403C16.7092 41.9403 16.6172 39.6573 16.6223 39.66C19.1921 41.0591 21.4771 40.9973 22.8516 40.272C24.4049 39.4522 25.8091 38.4101 26.8589 37.0579C27.5656 36.1359 28.1411 35.091 28.5853 33.9231C29.0496 32.7553 29.4736 31.2187 29.8572 29.3132L30.584 29.3747L30.1904 41.9751L16.7092 41.9403Z" fill="#3F51F2"/>
<path fill-rule="evenodd" clip-rule="evenodd" d="M26.6328 1.40786C25.3807 1.12106 6.06836 0.0249023 6.06836 0.0249023H21.678C24.2904 0.0249023 26.0068 0.0350998 26.8272 0.0556669C30.1736 0.199026 32.7969 0.629278 34.6967 1.34642C36.8338 2.16597 38.4861 3.39529 39.6513 5.0343C40.8391 6.65291 41.4326 8.53785 41.4326 10.6892C41.4326 13.8854 40.1594 16.4464 37.6111 18.3723C36.8338 18.946 35.971 19.4172 35.0205 19.786C34.0922 20.1549 32.84 20.5032 31.2639 20.8309C32.5593 21.3432 33.5201 21.8759 34.1462 22.4291C34.6428 22.8593 35.0962 23.4023 35.5064 24.0579C35.917 24.693 36.5322 25.8301 37.3523 27.4692C39.2739 31.2186 40.7206 33.9641 41.6923 35.7057C42.6849 37.4267 43.5163 38.6765 44.1856 39.4551C44.7251 40.0902 45.2436 40.5306 45.7404 40.7766C46.258 41.0224 46.9596 41.1863 47.845 41.2683V41.9751H37.0935C36.5531 40.8482 36.208 40.1312 36.0573 39.8238L33.7899 34.9373C32.4298 32.0074 31.0589 29.4156 29.677 27.162C28.2953 24.9287 27.0323 23.4023 25.888 22.5827C25.3051 22.173 24.679 21.8861 24.0097 21.7222C23.3404 21.5378 22.3632 21.454 21.5318 21.4236C16.6025 21.2432 13.3381 20.7695 13.3381 20.7695H21.1922C23.8693 20.7695 25.7801 20.6261 26.9243 20.3393C28.0902 20.0525 29.1804 19.4583 30.1952 18.5567C32.4622 16.5079 33.5957 13.9673 33.5957 10.935C33.5957 9.31643 33.261 7.80031 32.5917 6.38658C31.944 4.95238 31.0372 3.7743 29.8714 2.85227C28.9646 2.15569 27.8851 1.67419 26.6328 1.40786Z" fill="#3D3D3D"/>
</svg>
